<svg xmlns="http://www.w3.org/2000/svg" viewBox="0 0 283.63 77.61"><title>Asset 1</title><path d="M6.45,3.37,5.5,28v.43c0,2.09.62,2.51,3.94,2.75V32.3c-2.42-.19-3.37-.24-4.7-.24s-2.27,0-4.74.24V31.16c3.32-.24,3.8-.62,3.89-3.18l1-23.29V4.41c0-2.18-.67-2.66-3.94-2.85V.38C2.8.52,3.51.57,4.84.57A36.22,36.22,0,0,0,9.34.33l8.83,24,9-24a44.82,44.82,0,0,0,4.55.24c1.19,0,2,0,3.75-.19V1.56c-3.23.19-3.94.67-3.94,2.8v.33L32,28c.05,2.56.48,2.94,3.89,3.18V32.3A53.66,53.66,0,0,0,30,31.92a53.79,53.79,0,0,0-5.92.38V31.16C27.27,31,28,30.45,28,28.22V28L27.56,3.41,19.73,24.57l-.57,1.56-.66,1.76-.62,1.8-.52,1.56h-.71l-.52-1.51-.67-1.85L14.8,26l-.57-1.66Z" style="fill:#fff"/><path d="M54.68,24.9h1.9c-.62,4.88-3.65,7.78-8.3,7.78-6.12,0-9.68-4.27-9.68-11.58S42.16,9.2,47.85,9.2s8.59,3.89,8.68,11.19H42.4c0,7.4,1.94,10.72,6.26,10.72C52,31.11,54.11,28.93,54.68,24.9Zm-1.94-6.21c-.29-5.6-1.85-8.26-4.94-8.26s-4.83,2.8-5.31,8.26Z" style="fill:#fff"/><path d="M59.14,11V10.1A29.55,29.55,0,0,0,65.4,9c.23,1.76.33,2.51.42,3.94v.52c1.05-2.7,3.09-4.27,5.55-4.27A3.84,3.84,0,0,1,75.5,13a2,2,0,0,1-2,2.28,1.76,1.76,0,0,1-2-1.61,2.57,2.57,0,0,1,.1-.48l.09-.47v-.43c0-.66-.57-1.14-1.42-1.14-2.47,0-4,3-4,7.69v9.91c0,2,.47,2.42,3.37,2.56v.95a48.39,48.39,0,0,0-10.58,0v-.95c2.89-.14,3.41-.52,3.41-2.56V13.28c0-2-.28-2.28-2.75-2.32Z" style="fill:#fff"/><path d="M93.13,8.77V16.6h-1c-.85-4.13-2.61-6.12-5.5-6.12-3.56,0-5.65,3.84-5.65,10.62s1.85,10,5.51,10c2.94,0,4.69-2.08,5.26-6.26h1.94c-.61,5.08-3.32,7.83-7.58,7.83-5.51,0-9.25-4.65-9.25-11.58S80.61,9.2,86.21,9.2a6.15,6.15,0,0,1,4.84,2l1.28-2.42Z" style="fill:#fff"/><path d="M112.81,24.9h1.9c-.62,4.88-3.65,7.78-8.3,7.78-6.12,0-9.68-4.27-9.68-11.58S100.29,9.2,106,9.2s8.59,3.89,8.68,11.19H100.53c0,7.4,1.94,10.72,6.26,10.72C110.16,31.11,112.24,28.93,112.81,24.9Zm-1.94-6.21c-.29-5.6-1.85-8.26-4.93-8.26s-4.84,2.8-5.32,8.26Z" style="fill:#fff"/><path d="M139.32,30.59v.81l-.71.09a23.25,23.25,0,0,0-5.55,1.14,17.93,17.93,0,0,1-.66-3.79c-1.33,2.65-3.18,3.88-5.88,3.88-5.17,0-8.78-4.79-8.78-11.62s3.56-11.62,8.63-11.62c2.57,0,3.94.86,5.7,3.7V4.88c0-2.46-.38-2.79-3.37-2.79V1.28A46,46,0,0,0,135.86,0V27.36C135.86,30.26,136.14,30.5,139.32,30.59Zm-7.21-9.2c0-7-1.8-10.58-5.31-10.58s-5.07,3.37-5.07,10.25,1.8,10.34,5.21,10.34S132.11,28,132.11,21.39Z" style="fill:#fff"/><path d="M157.39,24.9h1.9c-.62,4.88-3.65,7.78-8.3,7.78-6.12,0-9.68-4.27-9.68-11.58s3.56-11.9,9.25-11.9,8.58,3.89,8.68,11.19H145.11c0,7.4,1.94,10.72,6.26,10.72C154.73,31.11,156.82,28.93,157.39,24.9Zm-1.94-6.21c-.29-5.6-1.86-8.26-4.94-8.26s-4.84,2.8-5.31,8.26Z" style="fill:#fff"/><path d="M162.94,32.72V24.8l1,0c.85,4.31,2.84,6.4,6.17,6.4,2.79,0,4.88-1.85,4.88-4.27,0-1.61-.9-2.7-3.23-3.75l-1.8-.8-2.18-1c-3.46-1.61-4.55-2.94-4.55-5.69,0-3.75,2.94-6.31,7.11-6.31a7.92,7.92,0,0,1,4.84,1.52L176,8.92h.85v7.35h-1.09c-.43-3.8-2-5.6-5-5.6-2.52,0-4.46,1.71-4.46,3.94,0,1.89.71,2.51,5,4.41l2,.85c3.6,1.57,4.88,3.08,4.88,5.88,0,4-3.17,6.83-7.63,6.83a8.54,8.54,0,0,1-5.69-2l-1.14,2.13Z" style="fill:#fff"/><path d="M179.91,20.54V18.4H192.1v2.14Z" style="fill:#fff"/><path d="M209.55,15.27a8.26,8.26,0,0,1,3.75,1.52,7.88,7.88,0,0,1,2.94,6.31,8.93,8.93,0,0,1-3.94,7.4c-2,1.23-3.89,1.66-7.39,1.66h-12V31c3.51-.29,3.88-.62,3.88-3.18v-23c0-2.56-.47-2.94-3.88-3.13V.52h12.47c3.08,0,4.93.52,6.55,1.71a7.44,7.44,0,0,1,2.84,6C214.77,11.57,213,14,209.55,15.27Zm-8.77-.38H204c2.66,0,3.94-.38,5-1.56a7.27,7.27,0,0,0,1.57-5c0-4.41-1.76-6.36-5.74-6.36h-4Zm0,1.47V28.22c0,2.09.43,2.47,2.94,2.47h1.71c4.22,0,6.59-2.66,6.59-7.4a7.86,7.86,0,0,0-1.71-5.41c-1.09-1.09-2.51-1.52-5-1.52Z" style="fill:#fff"/><path d="M235.78,24.9h1.89c-.61,4.88-3.65,7.78-8.3,7.78-6.11,0-9.67-4.27-9.67-11.58S223.26,9.2,229,9.2s8.58,3.89,8.68,11.19H223.49c0,7.4,1.95,10.72,6.26,10.72C233.12,31.11,235.21,28.93,235.78,24.9Zm-1.95-6.21c-.28-5.6-1.85-8.26-4.93-8.26s-4.84,2.8-5.31,8.26Z" style="fill:#fff"/><path d="M240.28,11.15v-.81a29.64,29.64,0,0,0,6.26-1.42A25.56,25.56,0,0,1,247,13c1.7-2.56,3.65-3.7,6.4-3.7a6.56,6.56,0,0,1,6.26,3.8,10.89,10.89,0,0,1,.71,4.27V28.79c0,2,.47,2.42,3.37,2.56v.95a45.39,45.39,0,0,0-5.17-.29,44.16,44.16,0,0,0-5.17.29v-.95c2.56-.1,3.18-.57,3.18-2.47V17.26c0-4.12-1.24-5.78-4.27-5.78-3.23,0-4.93,2-4.93,5.93V28.88c0,1.9.61,2.37,3.08,2.47v.95a45.34,45.34,0,0,0-10.24,0v-.95c2.89-.14,3.36-.52,3.36-2.56V13.42c0-1.94-.33-2.23-2.7-2.23C240.76,11.19,240.52,11.15,240.28,11.15Z" style="fill:#fff"/><path d="M265.7,32.16,278.55,11h-5.26c-3.08,0-3.84.67-5.55,4.93h-.95l1.09-6.16h15.75l-12.9,21.15h5.55c3.22,0,4.55-1.28,6-5.59h1L282,32.16Z" style="fill:#fff"/><path d="M84.47,60.53c0,5.69-3.16,9.71-7.61,9.71S69.3,66.3,69.3,60.61s3.16-9.67,7.76-9.67C81.43,50.94,84.47,54.84,84.47,60.53Zm-3.28.12c0-5.81-1.4-8.7-4.21-8.7s-4.41,3-4.41,8.66,1.41,8.62,4.26,8.62S81.19,66.3,81.19,60.65Z" style="fill:#fff"/><path d="M93,51.4H97.5v1.45H93V67c0,1.68.43,2,2.81,2.11v.78a41.25,41.25,0,0,0-8.7,0v-.78c2.38-.12,2.81-.43,2.81-2.11V52.85H87.24V51.6c2.57,0,2.81-.23,2.92-2.42s.35-3.16,1.1-4.09a5.38,5.38,0,0,1,4.25-1.84c2.22,0,3.82,1.21,3.82,2.93a1.32,1.32,0,0,1-1.44,1.44c-.82,0-1.41-.47-1.41-1.13,0-.12,0-.27.08-.55s0-.39,0-.5a1.1,1.1,0,0,0-1.21-1.17c-1.68,0-2.38,1.32-2.38,4.52Z" style="fill:#fff"/><path d="M129.2,70.59h-.58l-.86-1.36-1.09-1.72-1.13-1.68-.94-1.44L113.1,47.07V66.38c0,2.11.31,2.38,3.19,2.61v.94c-2.26-.16-3-.2-3.94-.2s-1.71,0-3.78.2V69c2.89-.23,3.24-.5,3.24-2.61V45.79c-.82-.82-1.41-1-3.28-1.13v-1a32.46,32.46,0,0,0,3.28.16,22.69,22.69,0,0,0,2.85-.16l13.22,19.77V47.23c0-2.07-.35-2.38-3.2-2.57v-1c2.14.16,2.92.2,3.94.2s1.79,0,3.78-.2v1c-2.85.19-3.2.5-3.2,2.57Z" style="fill:#fff"/><path d="M149.63,68.8v1a10,10,0,0,1-2.15.28c-1.94,0-2.8-1-3-3.36-1.4,2.54-2.77,3.43-5.26,3.43-3.16,0-5.42-2.06-5.42-5,0-3.55,3.62-6,10.21-6.82V56c0-2.77-.93-3.9-3.19-3.9-1.91,0-3.24.93-3.24,2.3v.85c0,1.17-.51,1.76-1.56,1.76a1.17,1.17,0,0,1-1.29-1.33c0-2.49,2.93-4.64,6.36-4.64,2.54,0,4.8,1.17,5.54,3a8.77,8.77,0,0,1,.51,3.47v7.95c0,2.66.35,3.47,1.56,3.47A5.85,5.85,0,0,0,149.63,68.8ZM144,59.32c-4.91.9-7,2.58-7,5.62,0,2.18,1.21,3.55,3.24,3.55,2.65,0,3.78-1.76,3.78-5.78Z" style="fill:#fff"/><path d="M151.31,52.34v-.66l.58,0a33.63,33.63,0,0,0,4.53-.67,15.14,15.14,0,0,1,.46,2.73l0,.55c1.21-2.22,2.73-3.2,5-3.2,4.29,0,7.37,4,7.37,9.56s-3,9.55-7.26,9.55c-2.14,0-3.31-.74-4.76-3v7.61c0,1.67.36,2,2.77,2.1v.78a41.16,41.16,0,0,0-8.69,0v-.78c2.37-.11,2.8-.43,2.8-2.1v-20c0-1.87-.39-2.26-2.26-2.34Zm5.85,8c0,5.74,1.56,8.7,4.48,8.7S166,66.26,166,60.69s-1.56-8.58-4.45-8.58S157.16,54.91,157.16,60.37Z" style="fill:#fff"/><path d="M177.79,43.37V67c0,1.68.39,2,2.77,2.11v.78a41.25,41.25,0,0,0-8.7,0v-.78c2.38-.12,2.81-.43,2.81-2.11V47.39c0-2-.32-2.3-2.77-2.3v-.67A32,32,0,0,0,177.79,43.37Z" style="fill:#fff"/><path d="M196.2,63.85h1.56c-.51,4-3,6.39-6.83,6.39-5,0-8-3.51-8-9.51s2.93-9.79,7.61-9.79,7.06,3.19,7.14,9.2H186.09c0,6.08,1.6,8.81,5.15,8.81C194,69,195.73,67.16,196.2,63.85Zm-1.6-5.11c-.24-4.61-1.52-6.79-4.06-6.79s-4,2.3-4.37,6.79Z" style="fill:#fff"/><path d="M201.34,70.28V63.77l.86,0c.7,3.55,2.34,5.26,5.07,5.26,2.3,0,4-1.52,4-3.51,0-1.32-.74-2.22-2.65-3.08l-1.49-.66-1.79-.82c-2.85-1.33-3.74-2.42-3.74-4.68,0-3.08,2.41-5.19,5.85-5.19a6.46,6.46,0,0,1,4,1.25l.67-1.6h.7v6h-.9c-.35-3.12-1.64-4.61-4.09-4.61a3.42,3.42,0,0,0-3.67,3.24c0,1.56.59,2.07,4.13,3.63l1.64.7c3,1.29,4,2.54,4,4.84,0,3.27-2.61,5.61-6.28,5.61A7,7,0,0,1,203,68.53L202,70.28Z" style="fill:#fff"/></svg>